# xmcd CD database file
#
# Track frame offsets:
#	150
#	6560
#	43230
#	47708
#	60025
#	68261
#	81670
#	92259
#	112733
#	119394
#	137441
#	142072
#	149522
#	179391
#	197041
#
# Disc length: 2934 seconds
#
# Revision: 0
# Processed by: cddbd v1.5.2PL0 Copyright (c) Steve Scherf et al.
# Submitted via: CDex 1.51
#
DISCID=ce0b740f
DTITLE=Joe Vitale - The Secret to Attracting Money [CD3]
DYEAR=2009
DGENRE=New Age
TTITLE0=Secret #1: Give money away
TTITLE1=Secret #2: Get Clear
TTITLE2=Secret #3: Take action
TTITLE3=Secret #4: Support a cause
TTITLE4=Secret #5: Get support
TTITLE5=Secret #6: Be grateful
TTITLE6=Secret #7: Do what you love
TTITLE7=Secret #8: Elevate your thinking
TTITLE8=Secret #9: Problems create opportunities
TTITLE9=Improving your level of deserving-ness
TTITLE10=Learning the law of attraction
TTITLE11=Becoming an entrepreneur
TTITLE12=Adopting the mindset of the very wealthy
TTITLE13=Having an expectation of success
TTITLE14=A real-life example of how this works
EXTD=YEAR: 2009
EXTT0=
EXTT1=
EXTT2=
EXTT3=
EXTT4=
EXTT5=
EXTT6=
EXTT7=
EXTT8=
EXTT9=
EXTT10=
EXTT11=
EXTT12=
EXTT13=
EXTT14=
PLAYORDER=
